<svg xmlns="http://www.w3.org/2000/svg" fill="none" viewBox="0 0 65 73"><path stroke="#000" d="M11 16.5h42.5m0 0h.5m-.5 0v41m0 0v.5m0-.5h-42m0 0H11m.5 0V17m1 0v39.5m0 0v.5m0-.5h40m0 0h.5m-.5 0v-39m0 0V17m0 .5h-39m0 0H13m.5 0v38m0 0v.5m0-.5h38m0 0h.5m-.5 0v-37m0 0V18m0 .5h-37m0 0H14m.5 0v36m0 0v.5m0-.5h36m0 0h.5m-.5 0v-35m0 0V19m0 .5h-35m0 0H15m.5 0v34m0 0v.5m0-.5h34m0 0h.5m-.5 0V20m5-4.5h.5m-.5 0v43m0-43H11m43.5 43v.5m0-.5h-44m0 0H10m.5 0v-44m0 0V14m0 .5H55"/><path stroke="#54A8A8" d="M16 20.5h.5m0 0h32m-32 0v32m0-32V20m32 .5h.5m-.5 0v32m0 0v.5m0-.5h-32m0 0H16m1.5-1v.5m0-.5h30m-30 0v-30m30 30h.5m-.5 0v-30m0 0V21m0 .5h-29m-1-.5v.5m0 0h1m0 0v1m0 28v.5m0-.5h28m-28 0v-28m28 28h.5m-.5 0v-28m0 0V22m0 .5h-27m-1 0h1m0 0v1m0 26v.5m0-.5h26m-26 0v-26m26 26h.5m-.5 0v-26m0 0V23m0 .5h-25m-1 0h1m0 0v1m0 24v.5m0-.5h24m-24 0v-24m24 24h.5m-.5 0v-24m0 0V24m0 .5h-23m-1 0h1m0 0v1m0 22v.5m0-.5h22m-22 0v-22m22 22h.5m-.5 0v-22m0 0V25m0 .5h-21m-1 0h1m0 0v1m0 20v.5m0-.5h20m-20 0v-20m20 20h.5m-.5 0v-20m0 0V26m0 .5h-19m-1 0h1m0 0v1m0 18v.5m0-.5h18m-18 0v-18m18 18h.5m-.5 0v-18m0 0V27m0 .5h-17m-1 0h1m0 0v1m0 16v.5m0-.5h16m-16 0v-16m16 16h.5m-.5 0v-16m0 0V28m0 .5h-15m-1 0h1m0 0v1m0 14v.5m0-.5h14m-14 0v-14m14 14h.5m-.5 0v-14m0 0V29m0 .5h-13m-1 0h1m0 0v1m0 12v.5m0-.5h12m-12 0v-12m12 12h.5m-.5 0v-12m0 0V30m0 .5h-11m-1 0h1m0 0v1m0 10v.5m0-.5h10m-10 0v-10m10 10h.5m-.5 0v-10m0 0V31m0 .5h-9m-1 0h1m0 0v1m0 8v.5m0-.5h8m-8 0v-8m8 8h.5m-.5 0v-8m0 0V32m0 .5h-7m-1 0h1m0 0v1m0 6v.5m0-.5h6m-6 0v-6m6 6h.5m-.5 0v-6m0 0V33m0 .5h-5m-1 0h1m0 0v1m0 4v.5m0-.5h4m-4 0v-4m4 4h.5m-.5 0v-4m0 0V34m0 .5h-3m-1 0h1m0 0v1m0 2v.5m0-.5h2m-2 0v-1m2 1h.5m-.5 0v-1m0-1V35m0 .5h-2m2 0v1m-2-1v1m0 0h2"/></svg>
