<svg xmlns="http://www.w3.org/2000/svg" fill="none" viewBox="0 0 65 73"><g fill="#0000A8"><path d="M57 8v1h-1V8h1ZM57 7v1h-1V7h1ZM57 12v1h-1v-1h1ZM57 9v1h-1V9h1ZM56 10h1v1h-1v-1ZM56 11h1v1h-1v-1ZM58 8v1h-1V8h1ZM58 7v1h-1V7h1ZM58 12v1h-1v-1h1ZM58 9v1h-1V9h1ZM57 10h1v1h-1v-1ZM57 11h1v1h-1v-1Z"/></g><g fill="#fff"><path d="M13 44h1v1h-1v-1ZM12 44h1v1h-1v-1ZM17 44h1v1h-1v-1ZM16 44h1v1h-1v-1ZM21 44h1v1h-1v-1ZM20 44h1v1h-1v-1ZM25 44h1v1h-1v-1ZM24 44h1v1h-1v-1ZM29 44h1v1h-1v-1ZM28 44h1v1h-1v-1ZM33 44h1v1h-1v-1ZM32 44h1v1h-1v-1ZM37 44h1v1h-1v-1ZM36 44h1v1h-1v-1ZM41 44h1v1h-1v-1ZM40 44h1v1h-1v-1ZM45 44h1v1h-1v-1ZM44 44h1v1h-1v-1ZM13 45h1v1h-1v-1ZM12 45h1v1h-1v-1ZM17 45h1v1h-1v-1ZM16 45h1v1h-1v-1ZM21 45h1v1h-1v-1ZM20 45h1v1h-1v-1ZM25 45h1v1h-1v-1ZM24 45h1v1h-1v-1ZM29 45h1v1h-1v-1ZM28 45h1v1h-1v-1ZM33 45h1v1h-1v-1ZM32 45h1v1h-1v-1ZM37 45h1v1h-1v-1ZM36 45h1v1h-1v-1ZM41 45h1v1h-1v-1ZM40 45h1v1h-1v-1ZM45 45h1v1h-1v-1ZM44 45h1v1h-1v-1Z"/></g><g fill="#00FCFC"><path d="M13 48h1v1h-1v-1ZM12 48h1v1h-1v-1ZM17 48h1v1h-1v-1ZM16 48h1v1h-1v-1ZM21 48h1v1h-1v-1ZM20 48h1v1h-1v-1ZM25 48h1v1h-1v-1ZM24 48h1v1h-1v-1ZM29 48h1v1h-1v-1ZM28 48h1v1h-1v-1ZM33 48h1v1h-1v-1ZM32 48h1v1h-1v-1ZM37 48h1v1h-1v-1ZM36 48h1v1h-1v-1ZM41 48h1v1h-1v-1ZM40 48h1v1h-1v-1ZM45 48h1v1h-1v-1ZM44 48h1v1h-1v-1ZM49 48h1v1h-1v-1ZM48 48h1v1h-1v-1ZM52 48h1v1h-1v-1ZM51 48h1v1h-1v-1ZM13 47h1v1h-1v-1ZM12 47h1v1h-1v-1ZM17 47h1v1h-1v-1ZM16 47h1v1h-1v-1ZM21 47h1v1h-1v-1ZM20 47h1v1h-1v-1ZM25 47h1v1h-1v-1ZM24 47h1v1h-1v-1ZM29 47h1v1h-1v-1ZM28 47h1v1h-1v-1ZM33 47h1v1h-1v-1ZM32 47h1v1h-1v-1ZM37 47h1v1h-1v-1ZM36 47h1v1h-1v-1ZM41 47h1v1h-1v-1ZM40 47h1v1h-1v-1ZM45 47h1v1h-1v-1ZM44 47h1v1h-1v-1ZM49 47h1v1h-1v-1ZM48 47h1v1h-1v-1ZM52 47h1v1h-1v-1ZM51 47h1v1h-1v-1ZM13 46h1v1h-1v-1ZM12 46h1v1h-1v-1ZM17 46h1v1h-1v-1ZM16 46h1v1h-1v-1ZM21 46h1v1h-1v-1ZM20 46h1v1h-1v-1ZM25 46h1v1h-1v-1ZM24 46h1v1h-1v-1ZM29 46h1v1h-1v-1ZM28 46h1v1h-1v-1ZM33 46h1v1h-1v-1ZM32 46h1v1h-1v-1ZM37 46h1v1h-1v-1ZM36 46h1v1h-1v-1ZM41 46h1v1h-1v-1ZM40 46h1v1h-1v-1ZM45 46h1v1h-1v-1ZM44 46h1v1h-1v-1ZM49 46h1v1h-1v-1ZM48 46h1v1h-1v-1ZM52 46h1v1h-1v-1ZM51 46h1v1h-1v-1ZM11 44h1v1h-1v-1ZM10 44h1v1h-1v-1ZM15 44h1v1h-1v-1ZM14 44h1v1h-1v-1ZM19 44h1v1h-1v-1ZM18 44h1v1h-1v-1ZM23 44h1v1h-1v-1ZM22 44h1v1h-1v-1ZM27 44h1v1h-1v-1ZM26 44h1v1h-1v-1ZM31 44h1v1h-1v-1ZM30 44h1v1h-1v-1ZM35 44h1v1h-1v-1ZM34 44h1v1h-1v-1ZM39 44h1v1h-1v-1ZM38 44h1v1h-1v-1ZM43 44h1v1h-1v-1ZM42 44h1v1h-1v-1ZM47 44h1v1h-1v-1ZM46 44h1v1h-1v-1ZM49 44h1v1h-1v-1ZM48 44h1v1h-1v-1ZM50 44h1v1h-1v-1ZM52 44h1v1h-1v-1ZM51 44h1v1h-1v-1ZM11 45h1v1h-1v-1ZM10 45h1v1h-1v-1ZM15 45h1v1h-1v-1ZM14 45h1v1h-1v-1ZM19 45h1v1h-1v-1ZM18 45h1v1h-1v-1ZM23 45h1v1h-1v-1ZM22 45h1v1h-1v-1ZM27 45h1v1h-1v-1ZM26 45h1v1h-1v-1ZM31 45h1v1h-1v-1ZM30 45h1v1h-1v-1ZM35 45h1v1h-1v-1ZM34 45h1v1h-1v-1ZM39 45h1v1h-1v-1ZM38 45h1v1h-1v-1ZM43 45h1v1h-1v-1ZM42 45h1v1h-1v-1ZM47 45h1v1h-1v-1ZM46 45h1v1h-1v-1ZM49 45h1v1h-1v-1ZM48 45h1v1h-1v-1ZM50 45h1v1h-1v-1ZM52 45h1v1h-1v-1ZM51 45h1v1h-1v-1Z"/></g><g fill="#000"><path d="M11 58h1v1h-1v-1ZM12 58h1v1h-1v-1ZM10 58h1v1h-1v-1ZM10 57h1v1h-1v-1ZM11 57h1v1h-1v-1ZM12 57h1v1h-1v-1ZM13 57h1v1h-1v-1ZM14 57h1v1h-1v-1ZM15 57h1v1h-1v-1ZM16 57h1v1h-1v-1ZM17 57h1v1h-1v-1ZM18 57h1v1h-1v-1ZM19 57h1v1h-1v-1ZM20 57h1v1h-1v-1ZM21 57h1v1h-1v-1ZM22 57h1v1h-1v-1ZM23 57h1v1h-1v-1ZM24 57h1v1h-1v-1ZM25 57h1v1h-1v-1ZM26 57h1v1h-1v-1ZM27 57h1v1h-1v-1ZM28 57h1v1h-1v-1ZM29 57h1v1h-1v-1ZM30 57h1v1h-1v-1ZM31 57h1v1h-1v-1ZM32 57h1v1h-1v-1ZM33 57h1v1h-1v-1ZM34 57h1v1h-1v-1ZM35 57h1v1h-1v-1ZM36 57h1v1h-1v-1ZM37 57h1v1h-1v-1ZM38 57h1v1h-1v-1ZM39 57h1v1h-1v-1ZM40 57h1v1h-1v-1ZM41 57h1v1h-1v-1ZM42 57h1v1h-1v-1ZM43 57h1v1h-1v-1ZM44 57h1v1h-1v-1ZM45 57h1v1h-1v-1ZM46 57h1v1h-1v-1ZM50 57h1v1h-1v-1ZM51 57h1v1h-1v-1ZM52 57h1v1h-1v-1ZM47 57h1v1h-1v-1ZM48 57h1v1h-1v-1ZM49 57h1v1h-1v-1ZM10 43h1v1h-1v-1ZM11 43h1v1h-1v-1ZM12 43h1v1h-1v-1ZM13 43h1v1h-1v-1ZM14 43h1v1h-1v-1ZM15 43h1v1h-1v-1ZM16 43h1v1h-1v-1ZM17 43h1v1h-1v-1ZM18 43h1v1h-1v-1ZM19 43h1v1h-1v-1ZM20 43h1v1h-1v-1ZM21 43h1v1h-1v-1ZM22 43h1v1h-1v-1ZM23 43h1v1h-1v-1ZM24 43h1v1h-1v-1ZM25 43h1v1h-1v-1ZM26 43h1v1h-1v-1ZM27 43h1v1h-1v-1ZM28 43h1v1h-1v-1ZM29 43h1v1h-1v-1ZM30 43h1v1h-1v-1ZM31 43h1v1h-1v-1ZM32 43h1v1h-1v-1ZM33 43h1v1h-1v-1ZM34 43h1v1h-1v-1ZM35 43h1v1h-1v-1ZM36 43h1v1h-1v-1ZM37 43h1v1h-1v-1ZM38 43h1v1h-1v-1ZM39 43h1v1h-1v-1ZM40 43h1v1h-1v-1ZM41 43h1v1h-1v-1ZM42 43h1v1h-1v-1ZM43 43h1v1h-1v-1ZM44 43h1v1h-1v-1ZM45 43h1v1h-1v-1ZM46 43h1v1h-1v-1ZM50 43h1v1h-1v-1ZM51 43h1v1h-1v-1ZM52 43h1v1h-1v-1ZM47 43h1v1h-1v-1ZM48 43h1v1h-1v-1ZM49 43h1v1h-1v-1ZM10 56h1v1h-1v-1ZM11 56h1v1h-1v-1ZM12 56h1v1h-1v-1ZM13 56h1v1h-1v-1ZM14 56h1v1h-1v-1ZM15 56h1v1h-1v-1ZM16 56h1v1h-1v-1ZM17 56h1v1h-1v-1ZM18 56h1v1h-1v-1ZM19 56h1v1h-1v-1ZM20 56h1v1h-1v-1ZM21 56h1v1h-1v-1ZM22 56h1v1h-1v-1ZM23 56h1v1h-1v-1ZM24 56h1v1h-1v-1ZM25 56h1v1h-1v-1ZM26 56h1v1h-1v-1ZM27 56h1v1h-1v-1ZM28 56h1v1h-1v-1ZM29 56h1v1h-1v-1ZM30 56h1v1h-1v-1ZM31 56h1v1h-1v-1ZM32 56h1v1h-1v-1ZM33 56h1v1h-1v-1ZM34 56h1v1h-1v-1ZM35 56h1v1h-1v-1ZM36 56h1v1h-1v-1ZM37 56h1v1h-1v-1ZM38 56h1v1h-1v-1ZM39 56h1v1h-1v-1ZM40 56h1v1h-1v-1ZM41 56h1v1h-1v-1ZM42 56h1v1h-1v-1ZM43 56h1v1h-1v-1ZM44 56h1v1h-1v-1ZM45 56h1v1h-1v-1ZM46 56h1v1h-1v-1ZM50 56h1v1h-1v-1ZM51 56h1v1h-1v-1ZM52 56h1v1h-1v-1ZM51 55h1v1h-1v-1ZM52 55h1v1h-1v-1ZM51 54h1v1h-1v-1ZM52 54h1v1h-1v-1ZM53 55h1v1h-1v-1ZM54 55h1v1h-1v-1ZM53 54h1v1h-1v-1ZM54 54h1v1h-1v-1ZM53 53h1v1h-1v-1ZM54 53h1v1h-1v-1ZM53 52h1v1h-1v-1ZM54 52h1v1h-1v-1Z"/><path d="M53 52h1v1h-1v-1ZM54 52h1v1h-1v-1ZM53 51h1v1h-1v-1ZM54 51h1v1h-1v-1ZM53 50h1v1h-1v-1ZM54 50h1v1h-1v-1ZM53 49h1v1h-1v-1ZM54 49h1v1h-1v-1ZM53 47h1v1h-1v-1ZM54 47h1v1h-1v-1ZM53 48h1v1h-1v-1ZM54 48h1v1h-1v-1ZM53 46h1v1h-1v-1ZM54 46h1v1h-1v-1ZM53 45h1v1h-1v-1ZM54 45h1v1h-1v-1ZM53 44h1v1h-1v-1ZM54 44h1v1h-1v-1ZM55 55h1v1h-1v-1ZM55 54h1v1h-1v-1ZM55 53h1v1h-1v-1ZM55 52h1v1h-1v-1Z"/><path d="M55 52h1v1h-1v-1ZM55 51h1v1h-1v-1ZM55 50h1v1h-1v-1ZM55 49h1v1h-1v-1ZM55 47h1v1h-1v-1ZM55 48h1v1h-1v-1ZM55 46h1v1h-1v-1ZM55 45h1v1h-1v-1ZM55 44h1v1h-1v-1ZM58 44h1v1h-1v-1ZM58 42h1v1h-1v-1ZM58 43h1v1h-1v-1ZM58 41h1v1h-1v-1ZM58 40h1v1h-1v-1ZM58 39h1v1h-1v-1ZM59 44h1v1h-1v-1ZM59 42h1v1h-1v-1ZM59 43h1v1h-1v-1ZM58 47h1v1h-1v-1ZM58 45h1v1h-1v-1ZM58 46h1v1h-1v-1ZM59 47h1v1h-1v-1ZM56 48h1v1h-1v-1ZM57 48h1v1h-1v-1ZM58 48h1v1h-1v-1ZM59 48h1v1h-1v-1ZM59 45h1v1h-1v-1ZM59 46h1v1h-1v-1ZM56 50h1v1h-1v-1ZM56 49h1v1h-1v-1ZM57 50h1v1h-1v-1ZM57 49h1v1h-1v-1ZM58 50h1v1h-1v-1ZM56 51h1v1h-1v-1ZM57 51h1v1h-1v-1ZM58 51h1v1h-1v-1ZM58 49h1v1h-1v-1ZM59 41h1v1h-1v-1ZM59 40h1v1h-1v-1ZM59 39h1v1h-1v-1ZM32 35h1v1h-1v-1ZM32 34h1v1h-1v-1ZM32 33h1v1h-1v-1ZM32 32h1v1h-1v-1ZM31 35h1v1h-1v-1ZM31 34h1v1h-1v-1ZM31 33h1v1h-1v-1ZM31 32h1v1h-1v-1ZM33 35h1v1h-1v-1ZM32 36h1v1h-1v-1ZM31 36h1v1h-1v-1ZM40 25h1v1h-1v-1ZM40 24h1v1h-1v-1ZM40 23h1v1h-1v-1ZM39 25h1v1h-1v-1ZM39 24h1v1h-1v-1ZM39 23h1v1h-1v-1ZM40 26h1v1h-1v-1ZM39 26h1v1h-1v-1ZM38 25h1v1h-1v-1ZM38 24h1v1h-1v-1ZM38 23h1v1h-1v-1ZM40 22h1v1h-1v-1ZM40 21h1v1h-1v-1ZM40 20h1v1h-1v-1ZM39 22h1v1h-1v-1ZM39 21h1v1h-1v-1ZM39 20h1v1h-1v-1ZM38 22h1v1h-1v-1ZM43 24h1v1h-1v-1ZM43 23h1v1h-1v-1ZM42 24h1v1h-1v-1ZM42 23h1v1h-1v-1ZM41 24h1v1h-1v-1ZM41 23h1v1h-1v-1ZM43 22h1v1h-1v-1ZM42 22h1v1h-1v-1ZM45 24h1v1h-1v-1ZM45 23h1v1h-1v-1ZM44 24h1v1h-1v-1ZM44 23h1v1h-1v-1ZM45 22h1v1h-1v-1ZM44 22h1v1h-1v-1ZM43 21h1v1h-1v-1ZM43 20h1v1h-1v-1ZM45 21h1v1h-1v-1ZM44 21h1v1h-1v-1ZM45 20h1v1h-1v-1ZM44 20h1v1h-1v-1ZM41 22h1v1h-1v-1ZM38 21h1v1h-1v-1ZM38 20h1v1h-1v-1ZM40 19h1v1h-1v-1ZM39 19h1v1h-1v-1ZM38 19h1v1h-1v-1ZM42 18h1v1h-1v-1ZM41 18h1v1h-1v-1ZM40 18h1v1h-1v-1ZM42 17h1v1h-1v-1ZM43 18h1v1h-1v-1ZM42 19h1v1h-1v-1ZM41 19h1v1h-1v-1ZM43 19h1v1h-1v-1ZM43 17h1v1h-1v-1ZM41 17h1v1h-1v-1ZM44 15h1v1h-1v-1ZM43 15h1v1h-1v-1ZM46 14v1h-1v-1h1ZM45 15h1v1h-1v-1ZM44 16h1v1h-1v-1ZM43 16h1v1h-1v-1ZM45 16h1v1h-1v-1ZM44 17h1v1h-1v-1ZM45 17h1v1h-1v-1ZM47 18v1h-1v-1h1ZM46 19h1v1h-1v-1ZM46 20h1v1h-1v-1ZM46 21h1v1h-1v-1ZM48 18v1h-1v-1h1ZM47 17v1h-1v-1h1ZM48 17v1h-1v-1h1ZM47 19h1v1h-1v-1ZM47 20h1v1h-1v-1ZM47 21h1v1h-1v-1ZM49 12v1h-1v-1h1ZM48 13h1v1h-1v-1ZM48 14h1v1h-1v-1ZM48 15h1v1h-1v-1ZM50 12v1h-1v-1h1ZM49 13h1v1h-1v-1ZM47 12v1h-1v-1h1ZM46 13h1v1h-1v-1ZM46 12v1h-1v-1h1ZM45 13h1v1h-1v-1ZM48 12v1h-1v-1h1ZM47 13h1v1h-1v-1ZM46 14h1v1h-1v-1ZM47 14h1v1h-1v-1ZM49 14h1v1h-1v-1ZM49 15h1v1h-1v-1ZM49 16v1h-1v-1h1ZM48 17h1v1h-1v-1ZM48 18h1v1h-1v-1ZM48 19h1v1h-1v-1ZM50 16v1h-1v-1h1ZM49 17h1v1h-1v-1ZM49 18h1v1h-1v-1ZM49 19h1v1h-1v-1ZM51 12v1h-1v-1h1ZM50 13h1v1h-1v-1ZM50 10v1h-1v-1h1ZM49 11h1v1h-1v-1ZM49 10v1h-1v-1h1ZM48 11h1v1h-1v-1ZM51 10v1h-1v-1h1ZM52 9v1h-1V9h1ZM53 9v1h-1V9h1ZM53 8v1h-1V8h1ZM52 8v1h-1V8h1ZM54 8v1h-1V8h1ZM55 8v1h-1V8h1ZM53 7v1h-1V7h1ZM52 7v1h-1V7h1ZM51 9v1h-1V9h1ZM51 8v1h-1V8h1ZM51 7v1h-1V7h1ZM54 7v1h-1V7h1ZM55 7v1h-1V7h1ZM50 11h1v1h-1v-1ZM54 13v1h-1v-1h1ZM53 14h1v1h-1v-1ZM53 13v1h-1v-1h1ZM52 14h1v1h-1v-1ZM55 13v1h-1v-1h1ZM54 12v1h-1v-1h1ZM54 10v1h-1v-1h1ZM53 11h1v1h-1v-1ZM54 9v1h-1V9h1ZM53 12v1h-1v-1h1ZM53 16v1h-1v-1h1ZM52 17h1v1h-1v-1ZM54 16v1h-1v-1h1ZM53 17h1v1h-1v-1ZM53 15v1h-1v-1h1ZM55 12v1h-1v-1h1ZM54 14h1v1h-1v-1ZM53 15h1v1h-1v-1ZM54 15h1v1h-1v-1ZM56 13v1h-1v-1h1ZM55 14h1v1h-1v-1ZM55 15h1v1h-1v-1ZM55 9v1h-1V9h1ZM54 10h1v1h-1v-1ZM54 11h1v1h-1v-1ZM56 8v1h-1V8h1ZM56 7v1h-1V7h1ZM56 12v1h-1v-1h1ZM56 9v1h-1V9h1ZM55 10h1v1h-1v-1ZM55 11h1v1h-1v-1ZM50 14h1v1h-1v-1ZM50 15h1v1h-1v-1ZM51 16v1h-1v-1h1ZM50 17h1v1h-1v-1ZM52 12v1h-1v-1h1ZM51 13h1v1h-1v-1ZM51 14h1v1h-1v-1ZM51 15h1v1h-1v-1ZM52 16v1h-1v-1h1ZM51 17h1v1h-1v-1ZM50 18h1v1h-1v-1ZM50 19h1v1h-1v-1ZM46 22h1v1h-1v-1ZM47 22h1v1h-1v-1ZM44 19h1v1h-1v-1ZM45 19h1v1h-1v-1ZM44 14v1h-1v-1h1ZM45 14v1h-1v-1h1ZM40 17h1v1h-1v-1ZM38 26h1v1h-1v-1ZM33 36h1v1h-1v-1ZM33 34h1v1h-1v-1ZM33 33h1v1h-1v-1ZM33 32h1v1h-1v-1ZM32 31h1v1h-1v-1ZM31 31h1v1h-1v-1ZM33 31h1v1h-1v-1ZM34 31h1v1h-1v-1ZM34 30h1v1h-1v-1ZM35 31h1v1h-1v-1ZM35 30h1v1h-1v-1ZM36 31h1v1h-1v-1ZM36 30h1v1h-1v-1ZM38 28h1v1h-1v-1ZM38 27h1v1h-1v-1ZM36 28h1v1h-1v-1ZM36 27h1v1h-1v-1ZM37 28h1v1h-1v-1ZM37 27h1v1h-1v-1ZM40 27h1v1h-1v-1ZM39 27h1v1h-1v-1ZM36 26h1v1h-1v-1ZM37 26h1v1h-1v-1ZM34 29h1v1h-1v-1ZM33 30h1v1h-1v-1ZM33 29h1v1h-1v-1ZM35 29h1v1h-1v-1ZM36 29h1v1h-1v-1ZM37 29h1v1h-1v-1ZM38 29h1v1h-1v-1ZM8 55h1v1H8v-1ZM9 55h1v1H9v-1ZM8 54h1v1H8v-1ZM9 54h1v1H9v-1ZM8 53h1v1H8v-1ZM9 53h1v1H9v-1ZM8 52h1v1H8v-1ZM9 52h1v1H9v-1Z"/><path d="M8 52h1v1H8v-1ZM9 52h1v1H9v-1ZM8 51h1v1H8v-1ZM9 51h1v1H9v-1ZM8 50h1v1H8v-1ZM9 50h1v1H9v-1ZM8 49h1v1H8v-1ZM9 49h1v1H9v-1ZM8 47h1v1H8v-1ZM9 47h1v1H9v-1ZM8 48h1v1H8v-1ZM9 48h1v1H9v-1ZM8 46h1v1H8v-1ZM9 46h1v1H9v-1ZM8 45h1v1H8v-1ZM9 45h1v1H9v-1ZM8 44h1v1H8v-1ZM7 55h1v1H7v-1ZM7 54h1v1H7v-1ZM7 53h1v1H7v-1ZM7 52h1v1H7v-1Z"/><path d="M7 52h1v1H7v-1ZM7 51h1v1H7v-1ZM7 50h1v1H7v-1ZM7 49h1v1H7v-1ZM7 47h1v1H7v-1ZM7 48h1v1H7v-1ZM7 46h1v1H7v-1ZM7 45h1v1H7v-1ZM7 44h1v1H7v-1ZM9 44h1v1H9v-1ZM47 56h1v1h-1v-1ZM48 56h1v1h-1v-1ZM49 56h1v1h-1v-1ZM10 42h1v1h-1v-1ZM11 42h1v1h-1v-1ZM12 42h1v1h-1v-1ZM13 42h1v1h-1v-1ZM14 42h1v1h-1v-1ZM15 42h1v1h-1v-1ZM16 42h1v1h-1v-1ZM17 42h1v1h-1v-1ZM18 42h1v1h-1v-1ZM19 42h1v1h-1v-1ZM20 42h1v1h-1v-1ZM21 42h1v1h-1v-1ZM22 42h1v1h-1v-1ZM23 42h1v1h-1v-1ZM24 42h1v1h-1v-1ZM25 42h1v1h-1v-1ZM26 42h1v1h-1v-1ZM27 42h1v1h-1v-1ZM28 42h1v1h-1v-1ZM29 42h1v1h-1v-1ZM30 42h1v1h-1v-1ZM31 42h1v1h-1v-1ZM32 42h1v1h-1v-1ZM33 42h1v1h-1v-1ZM34 42h1v1h-1v-1ZM35 42h1v1h-1v-1ZM36 42h1v1h-1v-1ZM37 42h1v1h-1v-1ZM38 42h1v1h-1v-1ZM39 42h1v1h-1v-1ZM40 42h1v1h-1v-1ZM41 42h1v1h-1v-1ZM42 42h1v1h-1v-1ZM43 42h1v1h-1v-1ZM44 42h1v1h-1v-1ZM45 42h1v1h-1v-1ZM46 42h1v1h-1v-1ZM50 42h1v1h-1v-1ZM51 42h1v1h-1v-1ZM52 42h1v1h-1v-1ZM47 42h1v1h-1v-1ZM48 42h1v1h-1v-1ZM49 42h1v1h-1v-1ZM10 41h1v1h-1v-1ZM11 41h1v1h-1v-1ZM12 41h1v1h-1v-1ZM13 41h1v1h-1v-1ZM14 41h1v1h-1v-1ZM15 41h1v1h-1v-1ZM16 41h1v1h-1v-1ZM17 41h1v1h-1v-1ZM18 41h1v1h-1v-1ZM19 41h1v1h-1v-1ZM20 41h1v1h-1v-1ZM21 41h1v1h-1v-1ZM22 41h1v1h-1v-1ZM23 41h1v1h-1v-1ZM24 41h1v1h-1v-1ZM25 41h1v1h-1v-1ZM26 41h1v1h-1v-1ZM27 41h1v1h-1v-1ZM28 41h1v1h-1v-1ZM29 41h1v1h-1v-1ZM30 41h1v1h-1v-1ZM31 41h1v1h-1v-1ZM32 41h1v1h-1v-1ZM33 41h1v1h-1v-1ZM34 41h1v1h-1v-1ZM35 41h1v1h-1v-1ZM36 41h1v1h-1v-1ZM37 41h1v1h-1v-1ZM38 41h1v1h-1v-1ZM39 41h1v1h-1v-1ZM40 41h1v1h-1v-1ZM41 41h1v1h-1v-1ZM42 41h1v1h-1v-1ZM43 41h1v1h-1v-1ZM44 41h1v1h-1v-1ZM45 41h1v1h-1v-1ZM46 41h1v1h-1v-1ZM50 41h1v1h-1v-1ZM51 41h1v1h-1v-1ZM52 41h1v1h-1v-1ZM47 41h1v1h-1v-1ZM48 41h1v1h-1v-1ZM49 41h1v1h-1v-1ZM45 38h1v1h-1v-1ZM46 38h1v1h-1v-1ZM47 38h1v1h-1v-1ZM48 38h1v1h-1v-1ZM49 38h1v1h-1v-1ZM50 38h1v1h-1v-1ZM51 38h1v1h-1v-1ZM55 38h1v1h-1v-1ZM56 38h1v1h-1v-1ZM57 38h1v1h-1v-1ZM52 38h1v1h-1v-1ZM53 38h1v1h-1v-1ZM54 38h1v1h-1v-1ZM45 37h1v1h-1v-1ZM46 37h1v1h-1v-1ZM47 37h1v1h-1v-1ZM48 37h1v1h-1v-1ZM49 37h1v1h-1v-1ZM50 37h1v1h-1v-1ZM51 37h1v1h-1v-1ZM55 37h1v1h-1v-1ZM56 37h1v1h-1v-1ZM57 37h1v1h-1v-1ZM52 37h1v1h-1v-1ZM53 37h1v1h-1v-1ZM54 37h1v1h-1v-1ZM34 37h1v1h-1v-1ZM35 37h1v1h-1v-1ZM36 37h1v1h-1v-1ZM37 37h1v1h-1v-1ZM38 37h1v1h-1v-1ZM42 37h1v1h-1v-1ZM43 37h1v1h-1v-1ZM44 37h1v1h-1v-1ZM39 37h1v1h-1v-1ZM40 37h1v1h-1v-1ZM41 37h1v1h-1v-1ZM34 38h1v1h-1v-1ZM35 38h1v1h-1v-1ZM36 38h1v1h-1v-1ZM37 38h1v1h-1v-1ZM38 38h1v1h-1v-1ZM42 38h1v1h-1v-1ZM43 38h1v1h-1v-1ZM44 38h1v1h-1v-1ZM39 38h1v1h-1v-1ZM40 38h1v1h-1v-1ZM41 38h1v1h-1v-1ZM13 58h1v1h-1v-1ZM14 58h1v1h-1v-1ZM15 58h1v1h-1v-1ZM16 58h1v1h-1v-1ZM17 58h1v1h-1v-1ZM18 58h1v1h-1v-1ZM19 58h1v1h-1v-1ZM20 58h1v1h-1v-1ZM21 58h1v1h-1v-1ZM22 58h1v1h-1v-1ZM23 58h1v1h-1v-1ZM24 58h1v1h-1v-1ZM25 58h1v1h-1v-1ZM26 58h1v1h-1v-1ZM27 58h1v1h-1v-1ZM28 58h1v1h-1v-1ZM29 58h1v1h-1v-1ZM30 58h1v1h-1v-1ZM31 58h1v1h-1v-1ZM32 58h1v1h-1v-1ZM33 58h1v1h-1v-1ZM34 58h1v1h-1v-1ZM35 58h1v1h-1v-1ZM36 58h1v1h-1v-1ZM37 58h1v1h-1v-1ZM38 58h1v1h-1v-1ZM39 58h1v1h-1v-1ZM40 58h1v1h-1v-1ZM41 58h1v1h-1v-1ZM42 58h1v1h-1v-1ZM43 58h1v1h-1v-1ZM44 58h1v1h-1v-1ZM45 58h1v1h-1v-1ZM46 58h1v1h-1v-1ZM47 58h1v1h-1v-1ZM48 58h1v1h-1v-1ZM49 58h1v1h-1v-1ZM50 58h1v1h-1v-1ZM51 58h1v1h-1v-1ZM52 58h1v1h-1v-1ZM47 55h1v1h-1v-1ZM46 55h1v1h-1v-1ZM42 55h1v1h-1v-1ZM41 55h1v1h-1v-1ZM37 55h1v1h-1v-1ZM36 55h1v1h-1v-1ZM32 55h1v1h-1v-1ZM31 55h1v1h-1v-1ZM27 55h1v1h-1v-1ZM26 55h1v1h-1v-1ZM22 55h1v1h-1v-1ZM21 55h1v1h-1v-1ZM17 55h1v1h-1v-1ZM16 55h1v1h-1v-1ZM12 55h1v1h-1v-1ZM11 55h1v1h-1v-1ZM11 53h1v1h-1v-1ZM10 53h1v1h-1v-1ZM11 52h1v1h-1v-1ZM10 52h1v1h-1v-1ZM13 53h1v1h-1v-1ZM12 53h1v1h-1v-1ZM15 53h1v1h-1v-1ZM14 53h1v1h-1v-1ZM17 53h1v1h-1v-1ZM16 53h1v1h-1v-1ZM19 53h1v1h-1v-1ZM18 53h1v1h-1v-1ZM21 53h1v1h-1v-1ZM20 53h1v1h-1v-1ZM23 53h1v1h-1v-1ZM22 53h1v1h-1v-1ZM25 53h1v1h-1v-1ZM24 53h1v1h-1v-1ZM27 53h1v1h-1v-1ZM26 53h1v1h-1v-1ZM29 53h1v1h-1v-1ZM28 53h1v1h-1v-1ZM31 53h1v1h-1v-1ZM30 53h1v1h-1v-1ZM33 53h1v1h-1v-1ZM32 53h1v1h-1v-1ZM35 53h1v1h-1v-1ZM34 53h1v1h-1v-1ZM37 53h1v1h-1v-1ZM36 53h1v1h-1v-1ZM39 53h1v1h-1v-1ZM38 53h1v1h-1v-1ZM41 53h1v1h-1v-1ZM40 53h1v1h-1v-1ZM43 53h1v1h-1v-1ZM42 53h1v1h-1v-1ZM45 53h1v1h-1v-1ZM44 53h1v1h-1v-1ZM47 53h1v1h-1v-1ZM46 53h1v1h-1v-1ZM49 53h1v1h-1v-1ZM48 53h1v1h-1v-1ZM50 53h1v1h-1v-1ZM52 53h1v1h-1v-1ZM51 53h1v1h-1v-1ZM47 54h1v1h-1v-1ZM46 54h1v1h-1v-1ZM42 54h1v1h-1v-1ZM41 54h1v1h-1v-1ZM37 54h1v1h-1v-1ZM36 54h1v1h-1v-1ZM32 54h1v1h-1v-1ZM31 54h1v1h-1v-1ZM27 54h1v1h-1v-1ZM26 54h1v1h-1v-1ZM22 54h1v1h-1v-1ZM21 54h1v1h-1v-1ZM15 52h1v1h-1v-1ZM14 52h1v1h-1v-1ZM19 52h1v1h-1v-1ZM18 52h1v1h-1v-1ZM23 52h1v1h-1v-1ZM22 52h1v1h-1v-1ZM27 52h1v1h-1v-1ZM26 52h1v1h-1v-1ZM31 52h1v1h-1v-1ZM30 52h1v1h-1v-1ZM35 52h1v1h-1v-1ZM34 52h1v1h-1v-1ZM39 52h1v1h-1v-1ZM38 52h1v1h-1v-1ZM43 52h1v1h-1v-1ZM42 52h1v1h-1v-1ZM47 52h1v1h-1v-1ZM46 52h1v1h-1v-1ZM50 52h1v1h-1v-1ZM11 51h1v1h-1v-1ZM10 51h1v1h-1v-1ZM15 51h1v1h-1v-1ZM14 51h1v1h-1v-1ZM19 51h1v1h-1v-1ZM18 51h1v1h-1v-1ZM23 51h1v1h-1v-1ZM22 51h1v1h-1v-1ZM27 51h1v1h-1v-1ZM26 51h1v1h-1v-1ZM31 51h1v1h-1v-1ZM30 51h1v1h-1v-1ZM35 51h1v1h-1v-1ZM34 51h1v1h-1v-1ZM39 51h1v1h-1v-1ZM38 51h1v1h-1v-1ZM43 51h1v1h-1v-1ZM42 51h1v1h-1v-1ZM47 51h1v1h-1v-1ZM46 51h1v1h-1v-1ZM50 51h1v1h-1v-1ZM33 37h1v1h-1v-1ZM33 38h1v1h-1v-1ZM17 54h1v1h-1v-1ZM16 54h1v1h-1v-1ZM12 54h1v1h-1v-1ZM11 54h1v1h-1v-1Z"/></g><g fill="#54A8A8"><path d="M10 59h1v1h-1v-1ZM11 59h1v1h-1v-1ZM10 60h1v1h-1v-1ZM9 59h1v1H9v-1ZM9 60h1v1H9v-1ZM11 60h1v1h-1v-1ZM12 59h1v1h-1v-1ZM13 59h1v1h-1v-1ZM12 60h1v1h-1v-1ZM13 60h1v1h-1v-1ZM14 59h1v1h-1v-1ZM15 59h1v1h-1v-1ZM14 60h1v1h-1v-1ZM15 60h1v1h-1v-1ZM16 59h1v1h-1v-1ZM17 59h1v1h-1v-1ZM16 60h1v1h-1v-1ZM17 60h1v1h-1v-1ZM18 59h1v1h-1v-1ZM19 59h1v1h-1v-1ZM18 60h1v1h-1v-1ZM19 60h1v1h-1v-1ZM20 59h1v1h-1v-1ZM21 59h1v1h-1v-1ZM20 60h1v1h-1v-1ZM21 60h1v1h-1v-1ZM22 59h1v1h-1v-1ZM23 59h1v1h-1v-1ZM22 60h1v1h-1v-1ZM23 60h1v1h-1v-1ZM24 59h1v1h-1v-1ZM25 59h1v1h-1v-1ZM24 60h1v1h-1v-1ZM25 60h1v1h-1v-1ZM26 59h1v1h-1v-1ZM27 59h1v1h-1v-1ZM26 60h1v1h-1v-1ZM27 60h1v1h-1v-1ZM28 59h1v1h-1v-1ZM29 59h1v1h-1v-1ZM28 60h1v1h-1v-1ZM29 60h1v1h-1v-1ZM30 59h1v1h-1v-1ZM31 59h1v1h-1v-1ZM30 60h1v1h-1v-1ZM31 60h1v1h-1v-1ZM32 59h1v1h-1v-1ZM33 59h1v1h-1v-1ZM32 60h1v1h-1v-1ZM33 60h1v1h-1v-1ZM34 59h1v1h-1v-1ZM35 59h1v1h-1v-1ZM34 60h1v1h-1v-1ZM35 60h1v1h-1v-1ZM36 59h1v1h-1v-1ZM37 59h1v1h-1v-1ZM36 60h1v1h-1v-1ZM37 60h1v1h-1v-1ZM38 59h1v1h-1v-1ZM39 59h1v1h-1v-1ZM38 60h1v1h-1v-1ZM39 60h1v1h-1v-1ZM40 59h1v1h-1v-1ZM41 59h1v1h-1v-1ZM40 60h1v1h-1v-1ZM41 60h1v1h-1v-1ZM42 59h1v1h-1v-1ZM42 60h1v1h-1v-1ZM43 59h1v1h-1v-1ZM44 59h1v1h-1v-1ZM43 60h1v1h-1v-1ZM44 60h1v1h-1v-1ZM10 61h1v1h-1v-1ZM11 61h1v1h-1v-1ZM10 62h1v1h-1v-1ZM11 62h1v1h-1v-1ZM12 61h1v1h-1v-1ZM13 61h1v1h-1v-1ZM12 62h1v1h-1v-1ZM13 62h1v1h-1v-1ZM14 61h1v1h-1v-1ZM15 61h1v1h-1v-1ZM14 62h1v1h-1v-1ZM15 62h1v1h-1v-1ZM16 61h1v1h-1v-1ZM17 61h1v1h-1v-1ZM16 62h1v1h-1v-1ZM17 62h1v1h-1v-1ZM18 61h1v1h-1v-1ZM19 61h1v1h-1v-1ZM18 62h1v1h-1v-1ZM19 62h1v1h-1v-1ZM20 61h1v1h-1v-1ZM21 61h1v1h-1v-1ZM20 62h1v1h-1v-1ZM21 62h1v1h-1v-1ZM22 61h1v1h-1v-1ZM23 61h1v1h-1v-1ZM22 62h1v1h-1v-1ZM23 62h1v1h-1v-1ZM24 61h1v1h-1v-1ZM25 61h1v1h-1v-1ZM24 62h1v1h-1v-1ZM25 62h1v1h-1v-1ZM26 61h1v1h-1v-1ZM27 61h1v1h-1v-1ZM26 62h1v1h-1v-1ZM27 62h1v1h-1v-1ZM28 61h1v1h-1v-1ZM29 61h1v1h-1v-1ZM28 62h1v1h-1v-1ZM29 62h1v1h-1v-1ZM30 61h1v1h-1v-1ZM31 61h1v1h-1v-1ZM30 62h1v1h-1v-1ZM31 62h1v1h-1v-1ZM32 61h1v1h-1v-1ZM33 61h1v1h-1v-1ZM32 62h1v1h-1v-1ZM33 62h1v1h-1v-1ZM34 61h1v1h-1v-1ZM35 61h1v1h-1v-1ZM34 62h1v1h-1v-1ZM35 62h1v1h-1v-1ZM36 61h1v1h-1v-1ZM37 61h1v1h-1v-1ZM36 62h1v1h-1v-1ZM37 62h1v1h-1v-1ZM38 61h1v1h-1v-1ZM39 61h1v1h-1v-1ZM38 62h1v1h-1v-1ZM39 62h1v1h-1v-1ZM40 61h1v1h-1v-1ZM41 61h1v1h-1v-1ZM40 62h1v1h-1v-1ZM41 62h1v1h-1v-1ZM42 61h1v1h-1v-1ZM42 62h1v1h-1v-1ZM42 63h1v1h-1v-1ZM42 64h1v1h-1v-1ZM43 61h1v1h-1v-1ZM44 61h1v1h-1v-1ZM43 62h1v1h-1v-1ZM43 63h1v1h-1v-1ZM43 64h1v1h-1v-1ZM43 65h1v1h-1v-1ZM44 62h1v1h-1v-1ZM7 63h1v1H7v-1ZM8 63h1v1H8v-1ZM7 64h1v1H7v-1ZM8 64h1v1H8v-1ZM9 63h1v1H9v-1ZM4 63h1v1H4v-1ZM5 63h1v1H5v-1ZM6 63h1v1H6v-1ZM10 63h1v1h-1v-1ZM9 64h1v1H9v-1ZM7 61h1v1H7v-1ZM8 61h1v1H8v-1ZM7 62h1v1H7v-1ZM8 62h1v1H8v-1ZM9 61h1v1H9v-1ZM9 62h1v1H9v-1ZM10 64h1v1h-1v-1ZM11 63h1v1h-1v-1ZM12 63h1v1h-1v-1ZM11 64h1v1h-1v-1ZM12 64h1v1h-1v-1ZM13 63h1v1h-1v-1ZM14 63h1v1h-1v-1ZM13 64h1v1h-1v-1ZM14 64h1v1h-1v-1ZM15 63h1v1h-1v-1ZM16 63h1v1h-1v-1ZM15 64h1v1h-1v-1ZM16 64h1v1h-1v-1ZM17 63h1v1h-1v-1ZM18 63h1v1h-1v-1ZM17 64h1v1h-1v-1ZM18 64h1v1h-1v-1ZM19 63h1v1h-1v-1ZM20 63h1v1h-1v-1ZM19 64h1v1h-1v-1ZM20 64h1v1h-1v-1ZM21 63h1v1h-1v-1ZM22 63h1v1h-1v-1ZM21 64h1v1h-1v-1ZM22 64h1v1h-1v-1ZM23 63h1v1h-1v-1ZM24 63h1v1h-1v-1ZM23 64h1v1h-1v-1ZM24 64h1v1h-1v-1ZM25 63h1v1h-1v-1ZM26 63h1v1h-1v-1ZM25 64h1v1h-1v-1ZM26 64h1v1h-1v-1ZM27 63h1v1h-1v-1ZM28 63h1v1h-1v-1ZM27 64h1v1h-1v-1ZM28 64h1v1h-1v-1ZM29 63h1v1h-1v-1ZM30 63h1v1h-1v-1ZM29 64h1v1h-1v-1ZM30 64h1v1h-1v-1ZM31 63h1v1h-1v-1ZM32 63h1v1h-1v-1ZM31 64h1v1h-1v-1ZM32 64h1v1h-1v-1ZM33 63h1v1h-1v-1ZM34 63h1v1h-1v-1ZM33 64h1v1h-1v-1ZM34 64h1v1h-1v-1ZM35 63h1v1h-1v-1ZM36 63h1v1h-1v-1ZM35 64h1v1h-1v-1ZM36 64h1v1h-1v-1ZM37 63h1v1h-1v-1ZM38 63h1v1h-1v-1ZM37 64h1v1h-1v-1ZM38 64h1v1h-1v-1ZM39 63h1v1h-1v-1ZM39 64h1v1h-1v-1ZM40 63h1v1h-1v-1ZM41 63h1v1h-1v-1ZM40 64h1v1h-1v-1ZM41 64h1v1h-1v-1ZM42 65h1v1h-1v-1ZM41 65h1v1h-1v-1ZM5 65h1v1H5v-1ZM6 65h1v1H6v-1ZM5 66h1v1H5v-1ZM6 66h1v1H6v-1ZM7 65h1v1H7v-1ZM8 65h1v1H8v-1ZM7 66h1v1H7v-1ZM8 66h1v1H8v-1ZM9 65h1v1H9v-1ZM10 65h1v1h-1v-1ZM9 66h1v1H9v-1ZM10 66h1v1h-1v-1ZM11 65h1v1h-1v-1ZM12 65h1v1h-1v-1ZM11 66h1v1h-1v-1ZM12 66h1v1h-1v-1ZM13 65h1v1h-1v-1ZM14 65h1v1h-1v-1ZM13 66h1v1h-1v-1ZM14 66h1v1h-1v-1ZM15 65h1v1h-1v-1ZM16 65h1v1h-1v-1ZM15 66h1v1h-1v-1ZM16 66h1v1h-1v-1ZM17 65h1v1h-1v-1ZM18 65h1v1h-1v-1ZM17 66h1v1h-1v-1ZM18 66h1v1h-1v-1ZM19 65h1v1h-1v-1ZM20 65h1v1h-1v-1ZM19 66h1v1h-1v-1ZM20 66h1v1h-1v-1ZM21 65h1v1h-1v-1ZM22 65h1v1h-1v-1ZM21 66h1v1h-1v-1ZM22 66h1v1h-1v-1ZM23 65h1v1h-1v-1ZM24 65h1v1h-1v-1ZM23 66h1v1h-1v-1ZM24 66h1v1h-1v-1ZM25 65h1v1h-1v-1ZM26 65h1v1h-1v-1ZM25 66h1v1h-1v-1ZM26 66h1v1h-1v-1ZM27 65h1v1h-1v-1ZM28 65h1v1h-1v-1ZM27 66h1v1h-1v-1ZM28 66h1v1h-1v-1ZM29 65h1v1h-1v-1ZM30 65h1v1h-1v-1ZM29 66h1v1h-1v-1ZM30 66h1v1h-1v-1ZM31 65h1v1h-1v-1ZM32 65h1v1h-1v-1ZM31 66h1v1h-1v-1ZM32 66h1v1h-1v-1ZM33 65h1v1h-1v-1ZM34 65h1v1h-1v-1ZM33 66h1v1h-1v-1ZM34 66h1v1h-1v-1ZM35 65h1v1h-1v-1ZM36 65h1v1h-1v-1ZM35 66h1v1h-1v-1ZM36 66h1v1h-1v-1ZM37 65h1v1h-1v-1ZM37 66h1v1h-1v-1ZM38 65h1v1h-1v-1ZM39 65h1v1h-1v-1ZM38 66h1v1h-1v-1ZM39 66h1v1h-1v-1ZM40 65h1v1h-1v-1ZM40 66h1v1h-1v-1ZM39 67h1v1h-1v-1ZM40 67h1v1h-1v-1ZM3 67h1v1H3v-1ZM4 67h1v1H4v-1ZM3 68h1v1H3v-1ZM4 68h1v1H4v-1ZM5 67h1v1H5v-1ZM4 65h1v1H4v-1ZM5 64h1v1H5v-1ZM6 64h1v1H6v-1ZM4 64h1v1H4v-1ZM2 66h1v1H2v-1ZM3 66h1v1H3v-1ZM4 66h1v1H4v-1ZM6 67h1v1H6v-1ZM5 68h1v1H5v-1ZM6 68h1v1H6v-1ZM7 67h1v1H7v-1ZM8 67h1v1H8v-1ZM7 68h1v1H7v-1ZM8 68h1v1H8v-1ZM9 67h1v1H9v-1ZM10 67h1v1h-1v-1ZM9 68h1v1H9v-1ZM10 68h1v1h-1v-1ZM11 67h1v1h-1v-1ZM12 67h1v1h-1v-1ZM11 68h1v1h-1v-1ZM12 68h1v1h-1v-1ZM13 67h1v1h-1v-1ZM14 67h1v1h-1v-1ZM13 68h1v1h-1v-1ZM14 68h1v1h-1v-1ZM15 67h1v1h-1v-1ZM16 67h1v1h-1v-1ZM15 68h1v1h-1v-1ZM16 68h1v1h-1v-1ZM17 67h1v1h-1v-1ZM18 67h1v1h-1v-1ZM17 68h1v1h-1v-1ZM18 68h1v1h-1v-1ZM19 67h1v1h-1v-1ZM20 67h1v1h-1v-1ZM19 68h1v1h-1v-1ZM20 68h1v1h-1v-1ZM21 67h1v1h-1v-1ZM22 67h1v1h-1v-1ZM21 68h1v1h-1v-1ZM22 68h1v1h-1v-1ZM23 67h1v1h-1v-1ZM24 67h1v1h-1v-1ZM23 68h1v1h-1v-1ZM24 68h1v1h-1v-1ZM25 67h1v1h-1v-1ZM26 67h1v1h-1v-1ZM25 68h1v1h-1v-1ZM26 68h1v1h-1v-1ZM27 67h1v1h-1v-1ZM28 67h1v1h-1v-1ZM27 68h1v1h-1v-1ZM28 68h1v1h-1v-1ZM29 67h1v1h-1v-1ZM30 67h1v1h-1v-1ZM29 68h1v1h-1v-1ZM30 68h1v1h-1v-1ZM31 67h1v1h-1v-1ZM32 67h1v1h-1v-1ZM31 68h1v1h-1v-1ZM32 68h1v1h-1v-1ZM33 67h1v1h-1v-1ZM34 67h1v1h-1v-1ZM33 68h1v1h-1v-1ZM34 68h1v1h-1v-1ZM35 67h1v1h-1v-1ZM35 68h1v1h-1v-1ZM36 67h1v1h-1v-1ZM37 67h1v1h-1v-1ZM36 68h1v1h-1v-1ZM37 68h1v1h-1v-1ZM35 69h1v1h-1v-1ZM35 70h1v1h-1v-1ZM36 69h1v1h-1v-1ZM37 69h1v1h-1v-1ZM36 70h1v1h-1v-1ZM37 70h1v1h-1v-1ZM38 67h1v1h-1v-1ZM38 68h1v1h-1v-1ZM38 69h1v1h-1v-1ZM38 70h1v1h-1v-1ZM0 69h1v1H0v-1ZM1 69h1v1H1v-1ZM0 70h1v1H0v-1ZM1 70h1v1H1v-1ZM2 69h1v1H2v-1ZM3 69h1v1H3v-1ZM2 67h1v1H2v-1ZM0 68h1v1H0v-1ZM1 68h1v1H1v-1ZM2 68h1v1H2v-1ZM2 70h1v1H2v-1ZM3 70h1v1H3v-1ZM4 69h1v1H4v-1ZM5 69h1v1H5v-1ZM4 70h1v1H4v-1ZM5 70h1v1H5v-1ZM6 69h1v1H6v-1ZM7 69h1v1H7v-1ZM6 70h1v1H6v-1ZM7 70h1v1H7v-1ZM8 69h1v1H8v-1ZM9 69h1v1H9v-1ZM8 70h1v1H8v-1ZM9 70h1v1H9v-1ZM10 69h1v1h-1v-1ZM11 69h1v1h-1v-1ZM10 70h1v1h-1v-1ZM11 70h1v1h-1v-1ZM12 69h1v1h-1v-1ZM13 69h1v1h-1v-1ZM12 70h1v1h-1v-1ZM13 70h1v1h-1v-1ZM14 69h1v1h-1v-1ZM15 69h1v1h-1v-1ZM14 70h1v1h-1v-1ZM15 70h1v1h-1v-1ZM16 69h1v1h-1v-1ZM17 69h1v1h-1v-1ZM16 70h1v1h-1v-1ZM17 70h1v1h-1v-1ZM18 69h1v1h-1v-1ZM19 69h1v1h-1v-1ZM18 70h1v1h-1v-1ZM19 70h1v1h-1v-1ZM20 69h1v1h-1v-1ZM21 69h1v1h-1v-1ZM20 70h1v1h-1v-1ZM21 70h1v1h-1v-1ZM22 69h1v1h-1v-1ZM23 69h1v1h-1v-1ZM22 70h1v1h-1v-1ZM23 70h1v1h-1v-1ZM24 69h1v1h-1v-1ZM25 69h1v1h-1v-1ZM24 70h1v1h-1v-1ZM25 70h1v1h-1v-1ZM26 69h1v1h-1v-1ZM27 69h1v1h-1v-1ZM26 70h1v1h-1v-1ZM27 70h1v1h-1v-1ZM28 69h1v1h-1v-1ZM29 69h1v1h-1v-1ZM28 70h1v1h-1v-1ZM29 70h1v1h-1v-1ZM30 69h1v1h-1v-1ZM31 69h1v1h-1v-1ZM30 70h1v1h-1v-1ZM31 70h1v1h-1v-1ZM32 69h1v1h-1v-1ZM32 70h1v1h-1v-1ZM33 69h1v1h-1v-1ZM34 69h1v1h-1v-1ZM33 70h1v1h-1v-1ZM34 70h1v1h-1v-1ZM45 59h1v1h-1v-1ZM46 59h1v1h-1v-1ZM45 60h1v1h-1v-1ZM45 61h1v1h-1v-1ZM45 62h1v1h-1v-1ZM46 60h1v1h-1v-1ZM47 59h1v1h-1v-1ZM46 62h1v1h-1v-1ZM46 63h1v1h-1v-1ZM46 61h1v1h-1v-1ZM47 60h1v1h-1v-1ZM48 59h1v1h-1v-1ZM48 60h1v1h-1v-1ZM44 63h1v1h-1v-1ZM45 63h1v1h-1v-1ZM44 55h1v1h-1v-1ZM43 55h1v1h-1v-1ZM45 55h1v1h-1v-1ZM48 55h1v1h-1v-1ZM49 55h1v1h-1v-1ZM50 55h1v1h-1v-1ZM34 55h1v1h-1v-1ZM33 55h1v1h-1v-1ZM35 55h1v1h-1v-1ZM38 55h1v1h-1v-1ZM39 55h1v1h-1v-1ZM40 55h1v1h-1v-1ZM24 55h1v1h-1v-1ZM23 55h1v1h-1v-1ZM25 55h1v1h-1v-1ZM28 55h1v1h-1v-1ZM29 55h1v1h-1v-1ZM30 55h1v1h-1v-1ZM14 55h1v1h-1v-1ZM13 55h1v1h-1v-1ZM10 55h1v1h-1v-1ZM9 55h1v1H9v-1ZM15 55h1v1h-1v-1ZM18 55h1v1h-1v-1ZM19 55h1v1h-1v-1ZM20 55h1v1h-1v-1ZM44 54h1v1h-1v-1ZM43 54h1v1h-1v-1ZM45 54h1v1h-1v-1ZM48 54h1v1h-1v-1ZM49 54h1v1h-1v-1ZM50 54h1v1h-1v-1ZM34 54h1v1h-1v-1ZM33 54h1v1h-1v-1ZM35 54h1v1h-1v-1ZM38 54h1v1h-1v-1ZM39 54h1v1h-1v-1ZM40 54h1v1h-1v-1ZM24 54h1v1h-1v-1ZM23 54h1v1h-1v-1ZM25 54h1v1h-1v-1ZM28 54h1v1h-1v-1ZM29 54h1v1h-1v-1ZM30 54h1v1h-1v-1ZM14 54h1v1h-1v-1ZM13 54h1v1h-1v-1ZM13 52h1v1h-1v-1ZM12 52h1v1h-1v-1ZM17 52h1v1h-1v-1ZM16 52h1v1h-1v-1ZM21 52h1v1h-1v-1ZM20 52h1v1h-1v-1ZM25 52h1v1h-1v-1ZM24 52h1v1h-1v-1ZM29 52h1v1h-1v-1ZM28 52h1v1h-1v-1ZM33 52h1v1h-1v-1ZM32 52h1v1h-1v-1ZM37 52h1v1h-1v-1ZM36 52h1v1h-1v-1ZM41 52h1v1h-1v-1ZM40 52h1v1h-1v-1ZM45 52h1v1h-1v-1ZM44 52h1v1h-1v-1ZM49 52h1v1h-1v-1ZM48 52h1v1h-1v-1ZM52 52h1v1h-1v-1ZM51 52h1v1h-1v-1ZM13 51h1v1h-1v-1ZM12 51h1v1h-1v-1ZM17 51h1v1h-1v-1ZM16 51h1v1h-1v-1ZM21 51h1v1h-1v-1ZM20 51h1v1h-1v-1ZM25 51h1v1h-1v-1ZM24 51h1v1h-1v-1ZM29 51h1v1h-1v-1ZM28 51h1v1h-1v-1ZM33 51h1v1h-1v-1ZM32 51h1v1h-1v-1ZM37 51h1v1h-1v-1ZM36 51h1v1h-1v-1ZM41 51h1v1h-1v-1ZM40 51h1v1h-1v-1ZM45 51h1v1h-1v-1ZM44 51h1v1h-1v-1ZM49 51h1v1h-1v-1ZM48 51h1v1h-1v-1ZM52 51h1v1h-1v-1ZM51 51h1v1h-1v-1ZM11 48h1v1h-1v-1ZM10 48h1v1h-1v-1ZM15 48h1v1h-1v-1ZM14 48h1v1h-1v-1ZM19 48h1v1h-1v-1ZM18 48h1v1h-1v-1ZM23 48h1v1h-1v-1ZM22 48h1v1h-1v-1ZM27 48h1v1h-1v-1ZM26 48h1v1h-1v-1ZM31 48h1v1h-1v-1ZM30 48h1v1h-1v-1ZM35 48h1v1h-1v-1ZM34 48h1v1h-1v-1ZM39 48h1v1h-1v-1ZM38 48h1v1h-1v-1ZM43 48h1v1h-1v-1ZM42 48h1v1h-1v-1ZM47 48h1v1h-1v-1ZM46 48h1v1h-1v-1ZM50 48h1v1h-1v-1ZM11 47h1v1h-1v-1ZM10 47h1v1h-1v-1ZM15 47h1v1h-1v-1ZM14 47h1v1h-1v-1ZM19 47h1v1h-1v-1ZM18 47h1v1h-1v-1ZM23 47h1v1h-1v-1ZM22 47h1v1h-1v-1ZM27 47h1v1h-1v-1ZM26 47h1v1h-1v-1ZM31 47h1v1h-1v-1ZM30 47h1v1h-1v-1ZM35 47h1v1h-1v-1ZM34 47h1v1h-1v-1ZM39 47h1v1h-1v-1ZM38 47h1v1h-1v-1ZM43 47h1v1h-1v-1ZM42 47h1v1h-1v-1ZM47 47h1v1h-1v-1ZM46 47h1v1h-1v-1ZM50 47h1v1h-1v-1ZM11 46h1v1h-1v-1ZM10 46h1v1h-1v-1ZM15 46h1v1h-1v-1ZM14 46h1v1h-1v-1ZM19 46h1v1h-1v-1ZM18 46h1v1h-1v-1ZM23 46h1v1h-1v-1ZM22 46h1v1h-1v-1ZM27 46h1v1h-1v-1ZM26 46h1v1h-1v-1ZM31 46h1v1h-1v-1ZM30 46h1v1h-1v-1ZM35 46h1v1h-1v-1ZM34 46h1v1h-1v-1ZM39 46h1v1h-1v-1ZM38 46h1v1h-1v-1ZM43 46h1v1h-1v-1ZM42 46h1v1h-1v-1ZM47 46h1v1h-1v-1ZM46 46h1v1h-1v-1ZM50 46h1v1h-1v-1ZM11 50h1v1h-1v-1ZM10 50h1v1h-1v-1ZM13 50h1v1h-1v-1ZM12 50h1v1h-1v-1ZM15 50h1v1h-1v-1ZM14 50h1v1h-1v-1ZM17 50h1v1h-1v-1ZM16 50h1v1h-1v-1ZM19 50h1v1h-1v-1ZM18 50h1v1h-1v-1ZM21 50h1v1h-1v-1ZM20 50h1v1h-1v-1ZM23 50h1v1h-1v-1ZM22 50h1v1h-1v-1ZM25 50h1v1h-1v-1ZM24 50h1v1h-1v-1ZM27 50h1v1h-1v-1ZM26 50h1v1h-1v-1ZM29 50h1v1h-1v-1ZM28 50h1v1h-1v-1ZM31 50h1v1h-1v-1ZM30 50h1v1h-1v-1ZM33 50h1v1h-1v-1ZM32 50h1v1h-1v-1ZM35 50h1v1h-1v-1ZM34 50h1v1h-1v-1ZM37 50h1v1h-1v-1ZM36 50h1v1h-1v-1ZM39 50h1v1h-1v-1ZM38 50h1v1h-1v-1ZM41 50h1v1h-1v-1ZM40 50h1v1h-1v-1ZM43 50h1v1h-1v-1ZM42 50h1v1h-1v-1ZM45 50h1v1h-1v-1ZM44 50h1v1h-1v-1ZM47 50h1v1h-1v-1ZM46 50h1v1h-1v-1ZM49 50h1v1h-1v-1ZM48 50h1v1h-1v-1ZM50 50h1v1h-1v-1ZM52 50h1v1h-1v-1ZM51 50h1v1h-1v-1ZM11 49h1v1h-1v-1ZM10 49h1v1h-1v-1ZM13 49h1v1h-1v-1ZM12 49h1v1h-1v-1ZM15 49h1v1h-1v-1ZM14 49h1v1h-1v-1ZM17 49h1v1h-1v-1ZM16 49h1v1h-1v-1ZM19 49h1v1h-1v-1ZM18 49h1v1h-1v-1ZM21 49h1v1h-1v-1ZM20 49h1v1h-1v-1ZM23 49h1v1h-1v-1ZM22 49h1v1h-1v-1ZM25 49h1v1h-1v-1ZM24 49h1v1h-1v-1ZM27 49h1v1h-1v-1ZM26 49h1v1h-1v-1ZM29 49h1v1h-1v-1ZM28 49h1v1h-1v-1ZM31 49h1v1h-1v-1ZM30 49h1v1h-1v-1ZM33 49h1v1h-1v-1ZM32 49h1v1h-1v-1ZM35 49h1v1h-1v-1ZM34 49h1v1h-1v-1ZM37 49h1v1h-1v-1ZM36 49h1v1h-1v-1ZM39 49h1v1h-1v-1ZM38 49h1v1h-1v-1ZM41 49h1v1h-1v-1ZM40 49h1v1h-1v-1ZM43 49h1v1h-1v-1ZM42 49h1v1h-1v-1ZM45 49h1v1h-1v-1ZM44 49h1v1h-1v-1ZM47 49h1v1h-1v-1ZM46 49h1v1h-1v-1ZM49 49h1v1h-1v-1ZM48 49h1v1h-1v-1ZM50 49h1v1h-1v-1ZM52 49h1v1h-1v-1ZM51 49h1v1h-1v-1ZM10 54h1v1h-1v-1ZM9 54h1v1H9v-1ZM15 54h1v1h-1v-1ZM18 54h1v1h-1v-1ZM19 54h1v1h-1v-1ZM20 54h1v1h-1v-1Z"/></g></svg>
